<svg display='none' xmlns="http://www.w3.org/2000/svg">
	<symbol id="vk" viewBox="0 0 50 50">
		<g>
			<path d="M25,2C12.318,2,2,12.318,2,25s10.318,23,23,23c12.683,0,23-10.318,23-23S37.683,2,25,2z M34.973,29.535 c2.237,1.986,2.702,2.695,2.778,2.816C38.678,33.821,36.723,34,36.723,34h-4.12c0,0-1.003,0.011-1.86-0.557 c-1.397-0.915-2.86-2.689-3.888-2.381C25.992,31.32,26,32.486,26,33.483C26,33.84,25.693,34,25,34s-0.981,0-1.288,0 c-2.257,0-4.706-0.76-7.149-3.313c-3.456-3.609-6.487-10.879-6.487-10.879s-0.179-0.366,0.016-0.589 c0.221-0.25,0.822-0.218,0.822-0.218L14.909,19c0,0,0.376,0.071,0.646,0.261c0.223,0.156,0.347,0.454,0.347,0.454 s0.671,2.216,1.526,3.629c1.67,2.758,2.447,2.828,3.014,2.531C21.27,25.445,21,22.513,21,22.513s0.037-1.259-0.395-1.82 c-0.333-0.434-0.97-0.665-1.248-0.701c-0.225-0.029,0.151-0.423,0.63-0.648C20.627,19.059,21.498,18.986,23,19 c1.169,0.011,1.506,0.081,1.962,0.186C26.341,19.504,26,20.343,26,23.289c0,0.944-0.13,2.271,0.582,2.711 c0.307,0.19,1.359,0.422,3.231-2.618c0.889-1.442,1.596-3.834,1.596-3.834s0.146-0.263,0.373-0.393 c0.232-0.133,0.225-0.13,0.543-0.13S35.832,19,36.532,19c0.699,0,1.355-0.008,1.468,0.402c0.162,0.589-0.516,2.607-2.234,4.797 C32.943,27.793,32.63,27.457,34.973,29.535z" />
		</g>
	</symbol>
	<symbol id="instagram" viewBox="0 0 30 30">
		<g>
			<path d="M 15 2 C 7.832 2 2 7.832 2 15 C 2 22.168 7.832 28 15 28 C 22.168 28 28 22.168 28 15 C 28 7.832 22.168 2 15 2 z M 11.666016 6 L 18.332031 6 C 21.457031 6 24 8.5420156 24 11.666016 L 24 18.332031 C 24 21.457031 21.457984 24 18.333984 24 L 11.667969 24 C 8.5429688 24 6 21.457984 6 18.333984 L 6 11.667969 C 6 8.5429688 8.5420156 6 11.666016 6 z M 11.666016 8 C 9.6450156 8 8 9.6459688 8 11.667969 L 8 18.333984 C 8 20.354984 9.6459688 22 11.667969 22 L 18.333984 22 C 20.354984 22 22 20.354031 22 18.332031 L 22 11.666016 C 22 9.6450156 20.354031 8 18.332031 8 L 11.666016 8 z M 19.667969 9.6660156 C 20.035969 9.6660156 20.333984 9.9640312 20.333984 10.332031 C 20.333984 10.700031 20.035969 11 19.667969 11 C 19.299969 11 19 10.700031 19 10.332031 C 19 9.9640312 19.299969 9.6660156 19.667969 9.6660156 z M 15 10 C 17.757 10 20 12.243 20 15 C 20 17.757 17.757 20 15 20 C 12.243 20 10 17.757 10 15 C 10 12.243 12.243 10 15 10 z M 15 12 A 3 3 0 0 0 15 18 A 3 3 0 0 0 15 12 z" />
		</g>
	</symbol>
	<symbol id="facebook" viewBox="0 0 50 50">
		<g>
			<path d="M25,2C12.318,2,2,12.317,2,25s10.318,23,23,23c12.683,0,23-10.317,23-23S37.683,2,25,2z M32,16h-3.29 C26.772,16,26,16.455,26,17.806V21h6l-1,5h-5v13h-6V26h-3v-5h3v-2.774C20,14.001,21.686,11,26.581,11C29.203,11,32,12,32,12V16z" />
		</g>
	</symbol>
</svg>